<svg width="322" height="202" viewBox="0 0 322 202" fill="none" xmlns="http://www.w3.org/2000/svg">
<path d="M0 0V202H322V0H0Z" fill="#49659C"/>
<path d="M140.749 120.046C131.355 124.408 120.465 126.759 111.647 119.167C110.993 118.603 110.477 117.989 110.659 117.077C110.94 115.666 112.377 114.352 113.133 113.163C114.385 111.194 115.434 108.988 116.162 106.772C118.897 98.4452 118.641 86.7682 111.093 80.977C102.118 74.0908 91.4729 80.5776 88.5333 90.0564C85.6673 99.2982 89.2741 110.321 95.7746 117.096C89.7402 118.825 84.2128 121.837 77.9827 123.159C62.9905 126.341 46.6719 123.28 33.5029 115.616C25.6519 111.046 18.4957 104.816 13.1953 97.4309C11.3244 94.8243 8.8407 90.7304 4.95105 93.0942C0.617038 95.7284 5.77625 101.895 7.63263 104.314C14.3384 113.052 23.429 120.666 33.5029 125.302C48.7511 132.32 65.0371 134.234 81.4422 130.758C86.1966 129.752 90.8181 128.209 95.2804 126.299C97.1663 125.492 100.128 123.328 102.199 123.559C105.445 123.921 109.021 127.843 112.084 129.178C120.086 132.667 128.399 133.65 136.795 131.065C140.105 130.046 143.896 128.604 146.185 125.946C150.068 129.471 155.135 132.456 160.517 132.783C169.739 133.343 178.336 125.52 180.78 117.096H181.769C187.951 133.866 213.363 137.286 225.754 125.9C228.621 123.265 231.029 120.193 232.559 116.605C233.482 114.441 233.679 110.731 235.751 109.365C238.486 107.563 242.437 106.692 245.523 105.62C253.333 102.907 261.896 100.421 270.234 100.381C281.598 100.327 292.763 102.314 302.853 107.77C305.943 109.441 311.544 114.57 315.013 111.436C317.613 109.087 316.101 105.996 313.717 104.265C308.634 100.576 302.405 97.7402 296.428 95.8621C282.957 91.6301 268.705 90.9187 254.913 94.105C248 95.7023 241.508 98.7642 234.65 100.381C233.758 95.6674 232.708 90.903 229.545 87.107C227.215 84.309 224.193 82.1678 220.812 80.8174C217.888 79.6492 215.06 79.171 211.916 79.2476C193.536 79.6955 187.58 105.105 203.514 113.893C206.715 115.658 209.795 116.154 213.399 116.111C217.259 116.065 221.358 114.949 224.766 113.163C219.582 124.003 205.444 127.649 195.607 120.642C190.717 117.158 188.084 111.885 186.503 106.28C185.252 101.842 185.968 97.3965 185.058 93.0067C184.665 91.1085 183.332 89.4075 181.275 89.237C176.26 88.8214 176.515 95.5656 176.352 98.9058C176.004 106.01 174.382 113.266 170.026 119.062C166.587 123.639 161.853 125.693 156.564 122.93C155.351 122.296 153.269 121.245 152.971 119.756C152.681 118.308 154.556 116.353 155.175 115.13C156.897 111.729 158.387 108.003 159.342 104.314C161.734 95.0725 162.494 85.805 162.494 76.2906C162.494 69.5074 161.583 61.8699 157.599 56.1335C156.515 54.5727 155.163 53.1911 153.598 52.1021C152.388 51.2599 151.064 50.6994 149.645 50.3124C139.649 47.5875 133.679 57.7231 131.797 65.9662C130.247 72.7581 130.614 80.2331 131.274 87.1066C131.897 93.5839 132.534 100.037 134.58 106.28C136.176 111.152 138.732 115.391 140.749 120.046Z" fill="#FCD75B"/>
<path d="M146.185 112.672H147.173C152.717 99.426 155.416 85.8418 154.008 71.3742C153.628 67.4637 152.045 58.3246 146.679 58.3246C141.398 58.3246 139.74 67.4974 139.35 71.3742C137.904 85.7637 140.665 99.4835 146.185 112.672ZM100.719 86.9799C94.1011 89.518 95.781 100.863 97.9689 105.789C98.7225 107.486 100.75 112.156 103.188 111.518C104.935 111.061 106.203 108.724 106.98 107.264C109.426 102.67 110.357 96.5243 108.723 91.5313C107.654 88.2652 104.245 85.6272 100.719 86.9799ZM226.249 104.314C226.248 101.226 226.083 98.3444 224.825 95.4644C223.929 93.4123 222.576 91.6414 220.81 90.2483C219.238 89.0081 217.344 88.1974 215.376 87.8281C213.483 87.4728 211.302 87.4345 209.445 87.9915C202.652 90.03 200.314 98.9314 204.766 104.268C207.123 107.094 210.339 107.969 213.893 107.711C218.244 107.395 222.022 105.037 226.249 104.314Z" fill="#49659C"/>
<path d="M85.752 8.832C85.08 8.832 84.504 8.604 84.024 8.148C83.568 7.692 83.34 7.14 83.34 6.492C83.34 5.82 83.568 5.256 84.024 4.8C84.504 4.32 85.08 4.08 85.752 4.08C86.4 4.08 86.952 4.32 87.408 4.8C87.888 5.256 88.128 5.82 88.128 6.492C88.128 7.14 87.888 7.692 87.408 8.148C86.952 8.604 86.4 8.832 85.752 8.832ZM87.876 25.284C87.876 27.156 88.068 28.584 88.452 29.568C87.78 30.168 87.024 30.468 86.184 30.468C85.536 30.468 85.008 30.288 84.6 29.928C84.192 29.544 83.988 29.028 83.988 28.38L83.952 16.212C83.952 14.46 83.76 13.02 83.376 11.892C84.096 11.316 84.828 11.028 85.572 11.028C86.22 11.028 86.748 11.22 87.156 11.604C87.588 11.964 87.804 12.468 87.804 13.116L87.876 25.284ZM109.03 25.284C109.078 27.252 109.294 28.68 109.678 29.568C109.03 30.168 108.274 30.468 107.41 30.468C106.738 30.468 106.186 30.288 105.754 29.928C105.322 29.544 105.106 29.028 105.106 28.38V18.984C105.082 16.992 104.842 15.528 104.386 14.592C103.954 13.632 103.15 13.152 101.974 13.152C101.182 13.152 100.45 13.452 99.7777 14.052C99.1297 14.652 98.6017 15.576 98.1937 16.824C97.7857 18.048 97.5817 19.584 97.5817 21.432C97.5817 24.264 97.6177 26.136 97.6897 27.048C97.7617 27.96 97.9537 28.812 98.2657 29.604C98.0257 29.82 97.7017 30.012 97.2937 30.18C96.9097 30.372 96.4897 30.468 96.0337 30.468C95.3377 30.468 94.7737 30.264 94.3417 29.856C93.9097 29.448 93.6937 28.896 93.6937 28.2V15.924C93.6697 15.252 93.5857 14.772 93.4417 14.484C93.2977 14.196 93.0577 14.052 92.7217 14.052C92.2657 14.052 91.9537 14.22 91.7857 14.556C91.4737 14.1 91.3177 13.644 91.3177 13.188C91.3177 12.564 91.5457 12.06 92.0017 11.676C92.4577 11.268 93.0937 11.064 93.9097 11.064C94.9417 11.064 95.7337 11.424 96.2857 12.144C96.8617 12.84 97.1497 13.884 97.1497 15.276V15.456C97.6297 14.04 98.3857 12.96 99.4177 12.216C100.474 11.448 101.746 11.064 103.234 11.064C105.202 11.064 106.654 11.676 107.59 12.9C108.55 14.124 109.03 15.96 109.03 18.408V25.284ZM119.544 30.468C117.288 30.468 115.584 30.084 114.432 29.316C113.28 28.548 112.704 27.516 112.704 26.22C112.704 25.572 112.884 25.02 113.244 24.564C113.628 24.108 114.216 23.88 115.008 23.88C115.152 23.88 115.392 23.904 115.728 23.952C115.656 24.24 115.62 24.504 115.62 24.744C115.62 25.032 115.656 25.344 115.728 25.68C115.848 26.64 116.268 27.42 116.988 28.02C117.732 28.62 118.74 28.92 120.012 28.92C121.14 28.92 122.052 28.716 122.748 28.308C123.444 27.876 123.792 27.252 123.792 26.436C123.792 25.884 123.624 25.404 123.288 24.996C122.976 24.564 122.58 24.204 122.1 23.916C121.62 23.628 120.936 23.268 120.048 22.836C119.856 22.764 119.568 22.632 119.184 22.44C117.888 21.84 116.856 21.312 116.088 20.856C115.344 20.376 114.696 19.74 114.144 18.948C113.616 18.156 113.352 17.184 113.352 16.032C113.352 14.352 114 13.104 115.296 12.288C116.592 11.448 118.236 11.028 120.228 11.028C122.22 11.028 123.792 11.34 124.944 11.964C126.096 12.564 126.672 13.44 126.672 14.592C126.672 15.12 126.516 15.576 126.204 15.96C125.916 16.32 125.448 16.512 124.8 16.536C124.68 16.56 124.524 16.572 124.332 16.572C124.212 16.572 123.984 16.548 123.648 16.5C123.672 16.356 123.684 16.14 123.684 15.852C123.684 15.324 123.612 14.928 123.468 14.664C123.324 13.992 122.952 13.476 122.352 13.116C121.776 12.732 121.02 12.54 120.084 12.54C119.196 12.54 118.44 12.72 117.816 13.08C117.216 13.44 116.916 13.992 116.916 14.736C116.916 15.408 117.108 15.984 117.492 16.464C117.9 16.944 118.392 17.352 118.968 17.688C119.544 18.024 120.36 18.444 121.416 18.948C122.88 19.644 123.972 20.208 124.692 20.64C125.412 21.048 126.06 21.612 126.636 22.332C127.212 23.052 127.5 23.928 127.5 24.96C127.5 26.496 126.852 27.804 125.556 28.884C124.284 29.94 122.28 30.468 119.544 30.468ZM136.271 11.568C136.727 11.568 137.351 11.556 138.143 11.532C138.935 11.508 139.559 11.484 140.015 11.46L139.979 12.432C139.955 12.744 139.847 12.996 139.655 13.188C139.487 13.356 139.259 13.44 138.971 13.44H135.587V14.628L135.551 25.464C135.551 26.76 136.115 27.408 137.243 27.408C137.579 27.408 137.891 27.36 138.179 27.264C138.491 27.144 138.695 26.988 138.791 26.796C139.103 27.252 139.259 27.696 139.259 28.128C139.259 28.8 138.923 29.352 138.251 29.784C137.603 30.192 136.763 30.396 135.731 30.396C134.435 30.396 133.427 29.988 132.707 29.172C131.987 28.356 131.627 27.228 131.627 25.788V13.44H131.123C130.811 13.44 130.451 13.452 130.043 13.476C129.635 13.5 129.275 13.536 128.963 13.584L128.999 12.54C129.023 12.228 129.131 11.988 129.323 11.82C129.515 11.652 129.755 11.568 130.043 11.568H131.627V8.832C131.627 8.208 131.843 7.716 132.275 7.356C132.707 6.972 133.259 6.78 133.931 6.78C134.771 6.78 135.515 7.068 136.163 7.644C135.875 8.7 135.695 10.008 135.623 11.568H136.271ZM145.764 8.832C145.092 8.832 144.516 8.604 144.036 8.148C143.58 7.692 143.352 7.14 143.352 6.492C143.352 5.82 143.58 5.256 144.036 4.8C144.516 4.32 145.092 4.08 145.764 4.08C146.412 4.08 146.964 4.32 147.42 4.8C147.9 5.256 148.14 5.82 148.14 6.492C148.14 7.14 147.9 7.692 147.42 8.148C146.964 8.604 146.412 8.832 145.764 8.832ZM147.888 25.284C147.888 27.156 148.08 28.584 148.464 29.568C147.792 30.168 147.036 30.468 146.196 30.468C145.548 30.468 145.02 30.288 144.612 29.928C144.204 29.544 144 29.028 144 28.38L143.964 16.212C143.964 14.46 143.772 13.02 143.388 11.892C144.108 11.316 144.84 11.028 145.584 11.028C146.232 11.028 146.76 11.22 147.168 11.604C147.6 11.964 147.816 12.468 147.816 13.116L147.888 25.284ZM158.349 11.568C158.805 11.568 159.429 11.556 160.221 11.532C161.013 11.508 161.637 11.484 162.093 11.46L162.057 12.432C162.033 12.744 161.925 12.996 161.733 13.188C161.565 13.356 161.337 13.44 161.049 13.44H157.665V14.628L157.629 25.464C157.629 26.76 158.193 27.408 159.321 27.408C159.657 27.408 159.969 27.36 160.257 27.264C160.569 27.144 160.773 26.988 160.869 26.796C161.181 27.252 161.337 27.696 161.337 28.128C161.337 28.8 161.001 29.352 160.329 29.784C159.681 30.192 158.841 30.396 157.809 30.396C156.513 30.396 155.505 29.988 154.785 29.172C154.065 28.356 153.705 27.228 153.705 25.788V13.44H153.201C152.889 13.44 152.529 13.452 152.121 13.476C151.713 13.5 151.353 13.536 151.041 13.584L151.077 12.54C151.101 12.228 151.209 11.988 151.401 11.82C151.593 11.652 151.833 11.568 152.121 11.568H153.705V8.832C153.705 8.208 153.921 7.716 154.353 7.356C154.785 6.972 155.337 6.78 156.009 6.78C156.849 6.78 157.593 7.068 158.241 7.644C157.953 8.7 157.773 10.008 157.701 11.568H158.349ZM182.674 26.976C182.962 27.384 183.106 27.828 183.106 28.308C183.106 28.956 182.878 29.472 182.422 29.856C181.99 30.24 181.366 30.432 180.55 30.432C179.494 30.432 178.678 30.084 178.102 29.388C177.55 28.692 177.274 27.648 177.274 26.256V26.184C176.77 27.576 176.014 28.644 175.006 29.388C174.022 30.132 172.798 30.504 171.334 30.504C169.366 30.504 167.926 29.94 167.014 28.812C166.126 27.684 165.682 25.788 165.682 23.124L165.646 16.248C165.646 14.4 165.454 12.96 165.07 11.928C165.742 11.352 166.498 11.064 167.338 11.064C168.01 11.064 168.55 11.256 168.958 11.64C169.39 12 169.606 12.504 169.606 13.152V22.548C169.606 24.708 169.822 26.256 170.254 27.192C170.686 28.104 171.466 28.56 172.594 28.56C173.362 28.56 174.07 28.26 174.718 27.66C175.366 27.036 175.882 26.088 176.266 24.816C176.674 23.544 176.878 21.972 176.878 20.1C176.878 17.268 176.842 15.396 176.77 14.484C176.698 13.548 176.506 12.684 176.194 11.892C176.89 11.34 177.646 11.064 178.462 11.064C179.11 11.064 179.65 11.268 180.082 11.676C180.514 12.084 180.73 12.636 180.73 13.332L180.766 25.608C180.766 26.28 180.838 26.76 180.982 27.048C181.15 27.312 181.402 27.444 181.738 27.444C182.17 27.444 182.482 27.288 182.674 26.976ZM191.537 11.568C191.993 11.568 192.617 11.556 193.409 11.532C194.201 11.508 194.825 11.484 195.281 11.46L195.245 12.432C195.221 12.744 195.113 12.996 194.921 13.188C194.753 13.356 194.525 13.44 194.237 13.44H190.853V14.628L190.817 25.464C190.817 26.76 191.381 27.408 192.509 27.408C192.845 27.408 193.157 27.36 193.445 27.264C193.757 27.144 193.961 26.988 194.057 26.796C194.369 27.252 194.525 27.696 194.525 28.128C194.525 28.8 194.189 29.352 193.517 29.784C192.869 30.192 192.029 30.396 190.997 30.396C189.701 30.396 188.693 29.988 187.973 29.172C187.253 28.356 186.893 27.228 186.893 25.788V13.44H186.389C186.077 13.44 185.717 13.452 185.309 13.476C184.901 13.5 184.541 13.536 184.229 13.584L184.265 12.54C184.289 12.228 184.397 11.988 184.589 11.82C184.781 11.652 185.021 11.568 185.309 11.568H186.893V8.832C186.893 8.208 187.109 7.716 187.541 7.356C187.973 6.972 188.525 6.78 189.197 6.78C190.037 6.78 190.781 7.068 191.429 7.644C191.141 8.7 190.961 10.008 190.889 11.568H191.537ZM206.249 30.468C203.537 30.468 201.425 29.616 199.913 27.912C198.425 26.208 197.681 23.832 197.681 20.784C197.681 17.712 198.437 15.324 199.949 13.62C201.461 11.916 203.561 11.064 206.249 11.064C208.961 11.064 211.073 11.916 212.585 13.62C214.097 15.324 214.853 17.712 214.853 20.784C214.853 23.832 214.097 26.208 212.585 27.912C211.073 29.616 208.961 30.468 206.249 30.468ZM206.249 28.992C207.689 28.992 208.769 28.296 209.489 26.904C210.233 25.512 210.605 23.472 210.605 20.784C210.605 18.072 210.233 16.02 209.489 14.628C208.769 13.236 207.689 12.54 206.249 12.54C204.809 12.54 203.717 13.236 202.973 14.628C202.253 16.02 201.893 18.072 201.893 20.784C201.893 23.472 202.253 25.512 202.973 26.904C203.717 28.296 204.809 28.992 206.249 28.992Z" fill="#39B5AA"/>
<path d="M64.74 163.568C65.196 163.568 65.82 163.556 66.612 163.532C67.404 163.508 68.028 163.484 68.484 163.46L68.448 164.432C68.424 164.744 68.316 164.996 68.124 165.188C67.956 165.356 67.728 165.44 67.44 165.44H64.056V166.628L64.02 177.464C64.02 178.76 64.584 179.408 65.712 179.408C66.048 179.408 66.36 179.36 66.648 179.264C66.96 179.144 67.164 178.988 67.26 178.796C67.572 179.252 67.728 179.696 67.728 180.128C67.728 180.8 67.392 181.352 66.72 181.784C66.072 182.192 65.232 182.396 64.2 182.396C62.904 182.396 61.896 181.988 61.176 181.172C60.456 180.356 60.096 179.228 60.096 177.788V165.44H59.592C59.28 165.44 58.92 165.452 58.512 165.476C58.104 165.5 57.744 165.536 57.432 165.584L57.468 164.54C57.492 164.228 57.6 163.988 57.792 163.82C57.984 163.652 58.224 163.568 58.512 163.568H60.096V160.832C60.096 160.208 60.312 159.716 60.744 159.356C61.176 158.972 61.728 158.78 62.4 158.78C63.24 158.78 63.984 159.068 64.632 159.644C64.344 160.7 64.164 162.008 64.092 163.568H64.74ZM86.0045 177.032C86.3885 177.2 86.5805 177.5 86.5805 177.932C86.5805 178.22 86.4965 178.568 86.3285 178.976C85.8725 180.104 85.0565 180.968 83.8805 181.568C82.7285 182.168 81.3365 182.468 79.7045 182.468C76.9685 182.468 74.8085 181.628 73.2245 179.948C71.6645 178.268 70.8845 175.88 70.8845 172.784C70.8845 169.736 71.6525 167.36 73.1885 165.656C74.7245 163.928 76.9205 163.064 79.7765 163.064C81.8645 163.064 83.5565 163.532 84.8525 164.468C86.1485 165.38 86.7965 166.688 86.7965 168.392C86.7965 170.168 86.0765 171.536 84.6365 172.496C83.2205 173.432 81.2885 173.9 78.8405 173.9C77.4485 173.9 76.2125 173.84 75.1325 173.72C75.3005 175.952 75.8645 177.548 76.8245 178.508C77.7845 179.468 79.0925 179.948 80.7485 179.948C82.0445 179.948 83.1485 179.684 84.0605 179.156C84.9965 178.628 85.6445 177.92 86.0045 177.032ZM79.6325 164.54C78.2165 164.54 77.1005 165.212 76.2845 166.556C75.4925 167.876 75.0965 169.76 75.0965 172.208C75.7205 172.28 76.3565 172.316 77.0045 172.316C78.6365 172.316 79.9685 171.992 81.0005 171.344C82.0325 170.696 82.5485 169.508 82.5485 167.78C82.5485 166.604 82.2725 165.776 81.7205 165.296C81.1685 164.792 80.4725 164.54 79.6325 164.54ZM99.4524 163.064C100.772 163.064 101.84 163.412 102.656 164.108C103.472 164.804 103.88 165.764 103.88 166.988C103.88 167.9 103.616 168.632 103.088 169.184C102.56 169.736 101.9 170.012 101.108 170.012C100.364 170.012 99.8244 169.82 99.4884 169.436C99.7524 169.004 99.9324 168.62 100.028 168.284C100.124 167.924 100.172 167.516 100.172 167.06C100.172 165.692 99.5724 165.008 98.3724 165.008C97.4124 165.008 96.6324 165.716 96.0324 167.132C95.4564 168.524 95.1684 170.624 95.1684 173.432V174.8C95.1684 176.936 95.2044 178.412 95.2764 179.228C95.3484 180.02 95.5284 180.776 95.8164 181.496C95.5764 181.712 95.2644 181.904 94.8804 182.072C94.4964 182.24 94.0524 182.336 93.5484 182.36C92.9004 182.36 92.3484 182.156 91.8924 181.748C91.4604 181.34 91.2444 180.788 91.2444 180.092V167.924C91.2444 167.276 91.1604 166.808 90.9924 166.52C90.8484 166.208 90.6084 166.052 90.2724 166.052C89.8164 166.052 89.5044 166.22 89.3364 166.556C89.0244 166.1 88.8684 165.644 88.8684 165.188C88.8684 164.564 89.0964 164.06 89.5524 163.676C90.0084 163.268 90.6444 163.064 91.4604 163.064C92.4444 163.064 93.2244 163.4 93.8004 164.072C94.3764 164.744 94.6764 165.74 94.7004 167.06C95.5404 164.396 97.1244 163.064 99.4524 163.064ZM124.006 178.796C124.294 179.18 124.438 179.624 124.438 180.128C124.438 180.752 124.162 181.28 123.61 181.712C123.058 182.144 122.35 182.36 121.486 182.36C120.31 182.36 119.422 181.964 118.822 181.172C118.222 180.356 117.91 179.048 117.886 177.248C117.166 178.808 116.182 180.056 114.934 180.992C113.686 181.928 112.258 182.396 110.65 182.396C109.258 182.396 108.13 182.024 107.266 181.28C106.426 180.512 106.006 179.48 106.006 178.184C106.006 176.672 106.582 175.424 107.734 174.44C108.886 173.456 110.362 172.712 112.162 172.208C113.962 171.704 115.798 171.476 117.67 171.524V170.624C117.67 168.536 117.382 167 116.806 166.016C116.23 165.032 115.27 164.54 113.926 164.54C113.014 164.54 112.27 164.756 111.694 165.188C111.142 165.62 110.866 166.328 110.866 167.312C110.866 167.864 110.974 168.38 111.19 168.86C111.406 169.34 111.766 169.7 112.27 169.94C112.03 170.204 111.706 170.408 111.298 170.552C110.914 170.672 110.506 170.732 110.074 170.732C109.114 170.732 108.334 170.42 107.734 169.796C107.158 169.148 106.87 168.368 106.87 167.456C106.87 166.04 107.518 164.96 108.814 164.216C110.11 163.448 111.898 163.064 114.178 163.064C116.77 163.064 118.666 163.688 119.866 164.936C121.09 166.16 121.702 168.128 121.702 170.84V177.464C121.702 178.736 122.11 179.372 122.926 179.372C123.118 179.372 123.31 179.324 123.502 179.228C123.718 179.132 123.886 178.988 124.006 178.796ZM112.45 179.768C113.242 179.768 114.046 179.456 114.862 178.832C115.702 178.184 116.398 177.332 116.95 176.276C117.502 175.22 117.778 174.092 117.778 172.892C116.938 172.844 116.086 172.892 115.222 173.036C114.358 173.156 113.614 173.36 112.99 173.648C112.15 174.008 111.49 174.5 111.01 175.124C110.554 175.724 110.326 176.432 110.326 177.248C110.326 177.968 110.494 178.568 110.83 179.048C111.19 179.528 111.73 179.768 112.45 179.768ZM137.635 163.064C139.915 163.064 141.535 163.916 142.495 165.62C143.479 167.324 143.971 169.46 143.971 172.028C143.971 175.364 143.287 177.944 141.919 179.768C140.575 181.568 138.691 182.468 136.267 182.468C135.139 182.468 134.179 182.264 133.387 181.856C132.595 181.424 132.031 180.812 131.695 180.02V182.9C131.695 185.444 131.899 187.484 132.307 189.02C131.659 189.596 130.903 189.884 130.039 189.884C129.391 189.884 128.851 189.692 128.419 189.308C127.987 188.948 127.771 188.456 127.771 187.832L127.807 168.032C127.807 167.384 127.723 166.916 127.555 166.628C127.411 166.34 127.171 166.196 126.835 166.196C126.379 166.196 126.067 166.352 125.899 166.664C125.587 166.208 125.431 165.752 125.431 165.296C125.431 164.696 125.671 164.204 126.151 163.82C126.631 163.412 127.255 163.208 128.023 163.208C130.111 163.208 131.251 164.768 131.443 167.888C132.619 164.672 134.683 163.064 137.635 163.064ZM135.331 180.344C138.283 180.344 139.759 177.572 139.759 172.028C139.759 169.892 139.531 168.236 139.075 167.06C138.619 165.86 137.755 165.26 136.483 165.26C135.475 165.26 134.611 165.692 133.891 166.556C133.171 167.42 132.631 168.56 132.271 169.976C131.911 171.392 131.731 172.892 131.731 174.476C131.731 176.396 131.995 177.86 132.523 178.868C133.075 179.852 134.011 180.344 135.331 180.344ZM161.907 177.032C162.291 177.2 162.483 177.5 162.483 177.932C162.483 178.22 162.399 178.568 162.231 178.976C161.775 180.104 160.959 180.968 159.783 181.568C158.631 182.168 157.239 182.468 155.607 182.468C152.871 182.468 150.711 181.628 149.127 179.948C147.567 178.268 146.787 175.88 146.787 172.784C146.787 169.736 147.555 167.36 149.091 165.656C150.627 163.928 152.823 163.064 155.679 163.064C157.767 163.064 159.459 163.532 160.755 164.468C162.051 165.38 162.699 166.688 162.699 168.392C162.699 170.168 161.979 171.536 160.539 172.496C159.123 173.432 157.191 173.9 154.743 173.9C153.351 173.9 152.115 173.84 151.035 173.72C151.203 175.952 151.767 177.548 152.727 178.508C153.687 179.468 154.995 179.948 156.651 179.948C157.947 179.948 159.051 179.684 159.963 179.156C160.899 178.628 161.547 177.92 161.907 177.032ZM155.535 164.54C154.119 164.54 153.003 165.212 152.187 166.556C151.395 167.876 150.999 169.76 150.999 172.208C151.623 172.28 152.259 172.316 152.907 172.316C154.539 172.316 155.871 171.992 156.903 171.344C157.935 170.696 158.451 169.508 158.451 167.78C158.451 166.604 158.175 165.776 157.623 165.296C157.071 164.792 156.375 164.54 155.535 164.54ZM150.675 161.66C150.507 161.66 150.255 161.612 149.919 161.516C149.607 161.396 149.439 161.288 149.415 161.192L153.915 155.828C154.131 155.756 154.527 155.72 155.103 155.72C155.559 155.72 155.895 155.756 156.111 155.828L160.611 161.192C160.587 161.288 160.407 161.396 160.071 161.516C159.735 161.612 159.483 161.66 159.315 161.66L155.031 158.636L150.675 161.66ZM183.635 178.976C183.923 179.384 184.067 179.828 184.067 180.308C184.067 180.956 183.839 181.472 183.383 181.856C182.951 182.24 182.327 182.432 181.511 182.432C180.455 182.432 179.639 182.084 179.063 181.388C178.511 180.692 178.235 179.648 178.235 178.256V178.184C177.731 179.576 176.975 180.644 175.967 181.388C174.983 182.132 173.759 182.504 172.295 182.504C170.327 182.504 168.887 181.94 167.975 180.812C167.087 179.684 166.643 177.788 166.643 175.124L166.607 168.248C166.607 166.4 166.415 164.96 166.031 163.928C166.703 163.352 167.459 163.064 168.299 163.064C168.971 163.064 169.511 163.256 169.919 163.64C170.351 164 170.567 164.504 170.567 165.152V174.548C170.567 176.708 170.783 178.256 171.215 179.192C171.647 180.104 172.427 180.56 173.555 180.56C174.323 180.56 175.031 180.26 175.679 179.66C176.327 179.036 176.843 178.088 177.227 176.816C177.635 175.544 177.839 173.972 177.839 172.1C177.839 169.268 177.803 167.396 177.731 166.484C177.659 165.548 177.467 164.684 177.155 163.892C177.851 163.34 178.607 163.064 179.423 163.064C180.071 163.064 180.611 163.268 181.043 163.676C181.475 164.084 181.691 164.636 181.691 165.332L181.727 177.608C181.727 178.28 181.799 178.76 181.943 179.048C182.111 179.312 182.363 179.444 182.699 179.444C183.131 179.444 183.443 179.288 183.635 178.976ZM192.498 163.568C192.954 163.568 193.578 163.556 194.37 163.532C195.162 163.508 195.786 163.484 196.242 163.46L196.206 164.432C196.182 164.744 196.074 164.996 195.882 165.188C195.714 165.356 195.486 165.44 195.198 165.44H191.814V166.628L191.778 177.464C191.778 178.76 192.342 179.408 193.47 179.408C193.806 179.408 194.118 179.36 194.406 179.264C194.718 179.144 194.922 178.988 195.018 178.796C195.33 179.252 195.486 179.696 195.486 180.128C195.486 180.8 195.15 181.352 194.478 181.784C193.83 182.192 192.99 182.396 191.958 182.396C190.662 182.396 189.654 181.988 188.934 181.172C188.214 180.356 187.854 179.228 187.854 177.788V165.44H187.35C187.038 165.44 186.678 165.452 186.27 165.476C185.862 165.5 185.502 165.536 185.19 165.584L185.226 164.54C185.25 164.228 185.358 163.988 185.55 163.82C185.742 163.652 185.982 163.568 186.27 163.568H187.854V160.832C187.854 160.208 188.07 159.716 188.502 159.356C188.934 158.972 189.486 158.78 190.158 158.78C190.998 158.78 191.742 159.068 192.39 159.644C192.102 160.7 191.922 162.008 191.85 163.568H192.498ZM201.99 160.832C201.318 160.832 200.742 160.604 200.262 160.148C199.806 159.692 199.578 159.14 199.578 158.492C199.578 157.82 199.806 157.256 200.262 156.8C200.742 156.32 201.318 156.08 201.99 156.08C202.638 156.08 203.19 156.32 203.646 156.8C204.126 157.256 204.366 157.82 204.366 158.492C204.366 159.14 204.126 159.692 203.646 160.148C203.19 160.604 202.638 160.832 201.99 160.832ZM204.114 177.284C204.114 179.156 204.306 180.584 204.69 181.568C204.018 182.168 203.262 182.468 202.422 182.468C201.774 182.468 201.246 182.288 200.838 181.928C200.43 181.544 200.226 181.028 200.226 180.38L200.19 168.212C200.19 166.46 199.998 165.02 199.614 163.892C200.334 163.316 201.066 163.028 201.81 163.028C202.458 163.028 202.986 163.22 203.394 163.604C203.826 163.964 204.042 164.468 204.042 165.116L204.114 177.284ZM216.988 182.468C214.204 182.468 212.044 181.64 210.508 179.984C208.996 178.304 208.24 175.904 208.24 172.784C208.24 169.76 209.02 167.384 210.58 165.656C212.14 163.928 214.336 163.064 217.168 163.064C219.208 163.064 220.78 163.496 221.884 164.36C223.012 165.2 223.576 166.292 223.576 167.636C223.576 168.548 223.3 169.28 222.748 169.832C222.22 170.384 221.524 170.66 220.66 170.66C220.252 170.66 219.844 170.6 219.436 170.48C219.052 170.336 218.752 170.132 218.536 169.868C219.256 169.388 219.616 168.536 219.616 167.312C219.616 166.352 219.364 165.656 218.86 165.224C218.356 164.768 217.684 164.54 216.844 164.54C215.5 164.54 214.432 165.212 213.64 166.556C212.848 167.876 212.452 169.748 212.452 172.172C212.452 174.86 212.956 176.828 213.964 178.076C214.972 179.324 216.364 179.948 218.14 179.948C219.412 179.948 220.504 179.636 221.416 179.012C222.328 178.388 222.916 177.536 223.18 176.456C223.564 176.6 223.756 176.948 223.756 177.5C223.756 177.812 223.708 178.148 223.612 178.508C223.228 179.78 222.448 180.764 221.272 181.46C220.12 182.132 218.692 182.468 216.988 182.468ZM235.124 182.468C232.412 182.468 230.3 181.616 228.788 179.912C227.3 178.208 226.556 175.832 226.556 172.784C226.556 169.712 227.312 167.324 228.824 165.62C230.336 163.916 232.436 163.064 235.124 163.064C237.836 163.064 239.948 163.916 241.46 165.62C242.972 167.324 243.728 169.712 243.728 172.784C243.728 175.832 242.972 178.208 241.46 179.912C239.948 181.616 237.836 182.468 235.124 182.468ZM235.124 180.992C236.564 180.992 237.644 180.296 238.364 178.904C239.108 177.512 239.48 175.472 239.48 172.784C239.48 170.072 239.108 168.02 238.364 166.628C237.644 165.236 236.564 164.54 235.124 164.54C233.684 164.54 232.592 165.236 231.848 166.628C231.128 168.02 230.768 170.072 230.768 172.784C230.768 175.472 231.128 177.512 231.848 178.904C232.592 180.296 233.684 180.992 235.124 180.992Z" fill="#39B5AA"/>
</svg>
